<svg width="9" height="7" viewBox="0 0 9 7" fill="none" xmlns="http://www.w3.org/2000/svg">
<path d="M4.49294 6.75772C4.343 6.75816 4.19769 6.67961 4.08223 6.53572L0.231828 1.70964C0.100775 1.54581 0.0183608 1.31038 0.0027155 1.05515C-0.0129298 0.799922 0.0394754 0.545799 0.148402 0.348686C0.257329 0.151573 0.413856 0.027616 0.583547 0.00408433C0.753238 -0.0194474 0.922194 0.0593735 1.05325 0.223208L4.49294 4.54737L7.93264 0.377643C7.99828 0.297466 8.07381 0.237592 8.15488 0.201463C8.23596 0.165333 8.32098 0.15366 8.40507 0.167114C8.48915 0.180569 8.57064 0.218885 8.64485 0.279861C8.71906 0.340837 8.78452 0.423272 8.83748 0.522425C8.89625 0.62167 8.94076 0.7381 8.96822 0.864421C8.99568 0.990743 9.0055 1.12423 8.99707 1.25653C8.98864 1.38882 8.96213 1.51707 8.91921 1.63324C8.87629 1.74941 8.81788 1.851 8.74764 1.93164L4.89723 6.59363C4.77846 6.71478 4.63611 6.77255 4.49294 6.75772Z" fill="#4C4C4C"/>
</svg>
