<svg width="12" height="12" viewBox="0 0 12 12" fill="none" xmlns="http://www.w3.org/2000/svg">
<path fill-rule="evenodd" clip-rule="evenodd" d="M11.25 1.71429H0.75C0.551088 1.71429 0.360322 1.62398 0.21967 1.46323C0.0790178 1.30249 0 1.08447 0 0.857143C0 0.629814 0.0790178 0.411797 0.21967 0.251051C0.360322 0.090306 0.551088 0 0.75 0H11.25C11.4489 0 11.6397 0.090306 11.7803 0.251051C11.921 0.411797 12 0.629814 12 0.857143C12 1.08447 11.921 1.30249 11.7803 1.46323C11.6397 1.62398 11.4489 1.71429 11.25 1.71429ZM9.75 5.14286H2.25C2.05109 5.14286 1.86032 5.05255 1.71967 4.89181C1.57902 4.73106 1.5 4.51304 1.5 4.28571C1.5 4.05839 1.57902 3.84037 1.71967 3.67962C1.86032 3.51888 2.05109 3.42857 2.25 3.42857H9.75C9.94891 3.42857 10.1397 3.51888 10.2803 3.67962C10.421 3.84037 10.5 4.05839 10.5 4.28571C10.5 4.51304 10.421 4.73106 10.2803 4.89181C10.1397 5.05255 9.94891 5.14286 9.75 5.14286ZM11.25 8.57143H0.75C0.551088 8.57143 0.360322 8.48112 0.21967 8.32038C0.0790178 8.15963 0 7.94161 0 7.71429C0 7.48696 0.0790178 7.26894 0.21967 7.10819C0.360322 6.94745 0.551088 6.85714 0.75 6.85714H11.25C11.4489 6.85714 11.6397 6.94745 11.7803 7.10819C11.921 7.26894 12 7.48696 12 7.71429C12 7.94161 11.921 8.15963 11.7803 8.32038C11.6397 8.48112 11.4489 8.57143 11.25 8.57143ZM9.75 12H2.25C2.05109 12 1.86032 11.9097 1.71967 11.7489C1.57902 11.5882 1.5 11.3702 1.5 11.1429C1.5 10.9155 1.57902 10.6975 1.71967 10.5368C1.86032 10.376 2.05109 10.2857 2.25 10.2857H9.75C9.94891 10.2857 10.1397 10.376 10.2803 10.5368C10.421 10.6975 10.5 10.9155 10.5 11.1429C10.5 11.3702 10.421 11.5882 10.2803 11.7489C10.1397 11.9097 9.94891 12 9.75 12Z" fill="#272727"/>
</svg>
