<svg width="12" height="12" viewBox="0 0 12 12" fill="none" xmlns="http://www.w3.org/2000/svg">
<path d="M8.80684 7.75741C9.53304 6.76632 9.85829 5.53755 9.71754 4.31692C9.57678 3.09629 8.9804 1.97382 8.04769 1.17408C7.11499 0.37434 5.91476 -0.0436913 4.68712 0.00361844C3.45949 0.0509282 2.29498 0.56009 1.42657 1.42924C0.558166 2.29839 0.0499094 3.46343 0.00348477 4.69127C-0.0429399 5.91911 0.375891 7.11921 1.17619 8.05147C1.97648 8.98373 3.09922 9.5794 4.31978 9.7193C5.54034 9.8592 6.76871 9.53302 7.75913 8.80602H7.75838C7.78088 8.83602 7.80488 8.86452 7.83188 8.89228L10.7193 11.7801C10.8599 11.9208 11.0507 11.9999 11.2496 12C11.4486 12.0001 11.6394 11.9211 11.7801 11.7805C11.9208 11.6398 11.9999 11.449 12 11.25C12.0001 11.0511 11.9211 10.8602 11.7805 10.7195L8.89309 7.83167C8.86628 7.80452 8.83744 7.77945 8.80684 7.75666V7.75741ZM9.00034 4.87411C9.00034 5.41587 8.89364 5.95233 8.68635 6.45285C8.47906 6.95336 8.17522 7.40815 7.7922 7.79123C7.40917 8.17431 6.95445 8.47819 6.454 8.68551C5.95355 8.89283 5.41717 8.99954 4.87549 8.99954C4.33381 8.99954 3.79743 8.89283 3.29698 8.68551C2.79653 8.47819 2.34181 8.17431 1.95878 7.79123C1.57576 7.40815 1.27192 6.95336 1.06463 6.45285C0.857338 5.95233 0.750645 5.41587 0.750645 4.87411C0.750645 3.77998 1.18523 2.73066 1.95878 1.957C2.73234 1.18333 3.78151 0.748688 4.87549 0.748688C5.96947 0.748688 7.01864 1.18333 7.7922 1.957C8.56575 2.73066 9.00034 3.77998 9.00034 4.87411Z" fill="#A4A4A4"/>
</svg>
